HIERARCHY
ROOT root
{
	OFFSET	0	13.1	24.9
	CHANNELS 6  Xposition Yposition Zposition Xrotation Yrotation Zrotation
	JOINT spine_1
	{
		OFFSET	0	9.99999	0
		CHANNELS 3  Xrotation Yrotation Zrotation
		JOINT spine_2
		{
			OFFSET	0	112	-10
			CHANNELS 3  Xrotation Yrotation Zrotation
			JOINT spine_3
			{
				OFFSET	0	206.5	19.3
				CHANNELS 3  Xrotation Yrotation Zrotation
				JOINT spine_4
				{
					OFFSET	0	110.4	14.6
					CHANNELS 3  Xrotation Yrotation Zrotation
					JOINT neck_1
					{
						OFFSET	0	71.8	-50.3
						CHANNELS 3  Xrotation Yrotation Zrotation
						JOINT neck_2
						{
							OFFSET	0	86.2	-25.8
							CHANNELS 3  Xrotation Yrotation Zrotation
							JOINT head_ee
							{
								OFFSET	0	179.8	-8.7
								CHANNELS 3  Xrotation Yrotation Zrotation
								End Site
								{
									OFFSET	1	0	0
								}
							}
						}
					}
					JOINT left_clavicle
					{
						OFFSET	-43.2	22.4	-70.8
						CHANNELS 3  Xrotation Yrotation Zrotation
						JOINT left_shoulder
						{
							OFFSET	-93.9	-5.79999	48.7
							CHANNELS 3  Xrotation Yrotation Zrotation
							JOINT left_elbow
							{
								OFFSET	-291.4	-30.8	15.2
								CHANNELS 3  Xrotation Yrotation Zrotation
								JOINT left_lowarm_twist
								{
									OFFSET	-110.7	-3.89999	13.6
									CHANNELS 3  Xrotation Yrotation Zrotation
									JOINT left_hand
									{
										OFFSET	-110.7	-3.89999	13.6
										CHANNELS 3  Xrotation Yrotation Zrotation
										JOINT left_ee
										{
											OFFSET	-80.8	-5.10001	12.1
											CHANNELS 3  Xrotation Yrotation Zrotation
											End Site
											{
												OFFSET	1	0	0
											}
										}
									}
								}
							}
						}
					}
					JOINT right_clavicle
					{
						OFFSET	43.2	22.4	-70.8
						CHANNELS 3  Xrotation Yrotation Zrotation
						JOINT right_shoulder
						{
							OFFSET	93.9	-5.79999	48.7
							CHANNELS 3  Xrotation Yrotation Zrotation
							JOINT right_elbow
							{
								OFFSET	291.4	-30.8	15.2
								CHANNELS 3  Xrotation Yrotation Zrotation
								JOINT right_lowarm_twist
								{
									OFFSET	110.7	-3.89999	13.6
									CHANNELS 3  Xrotation Yrotation Zrotation
									JOINT right_hand
									{
										OFFSET	110.7	-3.89999	13.6
										CHANNELS 3  Xrotation Yrotation Zrotation
										JOINT right_ee
										{
											OFFSET	80.8	-5.10001	12.1
											CHANNELS 3  Xrotation Yrotation Zrotation
											End Site
											{
												OFFSET	1	0	0
											}
										}
									}
								}
							}
						}
					}
				}
			}
		}
	}
	JOINT left_hip
	{
		OFFSET	-82.8	-127.5	0.300001
		CHANNELS 3  Xrotation Yrotation Zrotation
		JOINT left_knee
		{
			OFFSET	-28.2	-396.7	2.2
			CHANNELS 3  Xrotation Yrotation Zrotation
			JOINT left_ankle
			{
				OFFSET	-11.7	-411.3	35.4
				CHANNELS 3  Xrotation Yrotation Zrotation
				JOINT left_toes
				{
					OFFSET	0	-60	-88.6
					CHANNELS 3  Xrotation Yrotation Zrotation
					JOINT left_foot_ee
					{
						OFFSET	-22.5	-16.5	-42.2
						CHANNELS 3  Xrotation Yrotation Zrotation
						End Site
						{
							OFFSET	1	0	0
						}
					}
				}
			}
		}
	}
	JOINT right_hip
	{
		OFFSET	82.8	-127.5	0.300001
		CHANNELS 3  Xrotation Yrotation Zrotation
		JOINT right_knee
		{
			OFFSET	28.2	-396.7	2.2
			CHANNELS 3  Xrotation Yrotation Zrotation
			JOINT right_ankle
			{
				OFFSET	11.7	-411.3	35.4
				CHANNELS 3  Xrotation Yrotation Zrotation
				JOINT right_toes
				{
					OFFSET	0	-60	-88.6
					CHANNELS 3  Xrotation Yrotation Zrotation
					JOINT right_foot_ee
					{
						OFFSET	22.5	-16.5	-42.2
						CHANNELS 3  Xrotation Yrotation Zrotation
						End Site
						{
							OFFSET	1	0	0
						}
					}
				}
			}
		}
	}
}
MOTION
Frames: 11
Frame Time: 0.02
2111.93 727.084 -1494.75 -14.6116 64.0348 8.604 3.35255 0.765268 3.53728 3.35935 0.538779 3.57873 3.39034 -0.0110688 3.61899 3.37251 0.560252 3.57544 -3.85871 11.9143 -4.36732 -3.53274 25.1042 -2.68434 -0.0 0.0 -0.0 -9.25014 21.0817 -11.1561 5.05319 -18.5163 70.1623 1.55658 -37.6325 0.530424 -31.5918 -2.10452 3.39375 0.675917 11.953 9.24531 -0.0 0.0 -0.0 13.693 23.956 -27.5171 -10.6872 -0.665018 -69.6301 0.189934 5.37514 -0.00891575 13.5196 -0.276815 1.70084 2.66418 19.1601 -9.58672 0.0 0.0 0.0 2.8856 31.504 0.288209 -9.79524 0.277714 1.47578 35.2675 -6.81262 -4.52842 -37.4818 0.0 0.0 -0.0 0.0 -0.0 14.6263 22.6795 -1.88584 -18.4482 -0.310878 -2.80176 41.0407 -9.75266 4.96481 -34.7233 0.0 0.0 0.0 0.0 0.0 
2106.68 726.919 -1494.93 -14.96 64.4564 8.99149 3.40545 0.68579 3.57547 3.41245 0.457036 3.6118 3.43839 -0.0939996 3.63935 3.42023 0.481566 3.60862 -4.54312 11.7804 -3.9806 -4.29073 24.6123 -2.14542 -0.0 0.0 -0.0 -9.17774 21.1498 -11.0177 5.93384 -18.2052 69.7359 1.75414 -40.9853 0.655632 -32.5663 -2.19749 3.47728 0.261888 11.5373 6.43354 -0.0 0.0 -0.0 13.532 23.0454 -27.2322 -11.8821 -1.80069 -69.1945 0.191834 5.42858 -0.00909459 13.8967 -0.278743 1.74896 2.56138 18.2986 -9.30973 0.0 0.0 0.0 2.64393 31.3643 0.337862 -9.40895 0.271568 1.41683 34.9054 -7.0811 -4.49788 -38.2687 0.0 0.0 -0.0 0.0 -0.0 14.9047 23.4308 -1.96756 -19.5895 -0.300296 -2.97655 40.9039 -8.69245 4.94615 -33.5137 0.0 0.0 0.0 0.0 0.0 
2103.09 723.519 -1497.2 -15.4404 64.4939 9.43245 3.47605 0.664529 3.551 3.48296 0.437372 3.58603 3.50735 -0.105226 3.61103 3.48946 0.466016 3.58242 -5.09309 11.5581 -4.37942 -4.86781 24.5331 -2.46976 -0.0 0.0 -0.0 -9.23096 21.2549 -11.0587 7.11849 -18.0354 69.5053 1.92978 -43.7054 0.77398 -33.2712 -2.26562 3.53672 -0.165254 10.9061 3.45364 -0.0 0.0 -0.0 13.4422 22.4066 -27.0822 -12.8013 -2.24653 -68.8053 0.191504 5.41931 -0.00906343 14.0601 -0.279481 1.76981 2.49352 18.1516 -8.92328 0.0 0.0 0.0 2.4102 31.45 0.201243 -8.93404 0.263466 1.3444 35.4858 -7.40303 -4.55992 -38.6458 0.0 0.0 -0.0 0.0 -0.0 14.5619 23.5509 -1.85665 -19.1811 -0.304483 -2.91402 41.0293 -7.81896 4.95237 -32.3988 0.0 0.0 0.0 0.0 0.0 
2100.08 723.774 -1499.55 -16.8047 65.4222 10.8942 3.57095 0.591494 3.54865 3.57789 0.364634 3.57904 3.59747 -0.170578 3.5935 3.57967 0.398718 3.57541 -5.55935 11.2943 -4.55716 -5.36495 24.2008 -2.59297 -0.0 0.0 -0.0 -9.05047 21.2738 -10.7739 7.85033 -17.9676 69.4062 2.11899 -46.3828 0.907907 -33.862 -2.32329 3.58589 -0.484652 10.7906 1.36889 -0.0 0.0 -0.0 13.3973 21.8763 -27.0246 -13.5665 -2.80928 -68.5935 0.175079 4.95693 -0.0075782 14.2352 -0.280205 1.79217 2.41839 17.5305 -8.71154 0.0 0.0 0.0 2.46367 31.4578 0.209908 -7.16381 0.227983 1.07508 34.2445 -7.36059 -4.4378 -39.2736 0.0 0.0 -0.0 0.0 -0.0 14.9979 22.1235 -1.94745 -20.6049 -0.287958 -3.13185 41.1992 -7.09489 4.9639 -31.6022 0.0 0.0 0.0 0.0 0.0 
2092.99 722.516 -1501.16 -17.0084 65.1362 11.4732 3.69227 0.681676 3.57926 3.69928 0.452689 3.61532 3.72439 -0.0806322 3.64263 3.70621 0.495283 3.60974 -5.00133 11.0359 -5.98786 -4.70059 24.7624 -4.2436 -0.0 0.0 -0.0 -9.05106 21.7192 -10.6028 7.8135 -17.8574 69.0127 2.23792 -47.9418 0.995124 -34.1699 -2.35354 3.61128 -0.85081 9.24108 -1.6401 -0.0 0.0 -0.0 13.1866 21.4339 -26.5699 -15.2553 -3.51796 -68.9576 0.197004 5.57398 -0.00959028 14.4249 -0.280912 1.81638 2.33147 17.3917 -8.19161 0.0 0.0 0.0 2.29713 31.3741 0.0927386 -6.87884 0.221494 1.03183 36.8138 -8.14473 -4.70006 -39.7605 0.0 0.0 -0.0 0.0 -0.0 14.514 22.4709 -2.38698 -21.2901 -0.278075 -3.23653 41.2431 -5.68561 4.96425 -29.7826 0.0 0.0 0.0 0.0 0.0 
2088.99 720.715 -1499.86 -17.6737 66.2922 12.0479 3.60763 0.535573 3.74419 3.61538 0.296408 3.77063 3.63121 -0.264445 3.77301 3.6115 0.334315 3.76746 -5.31048 10.7482 -7.00787 -4.98057 24.9939 -5.27603 -0.0 0.0 -0.0 -8.95871 21.77 -10.4431 8.05859 -17.8819 68.9468 2.37367 -49.6132 1.09725 -34.2308 -2.35954 3.61628 -1.10969 8.32528 -3.71542 -0.0 0.0 -0.0 12.7859 21.6507 -25.6197 -15.422 -3.80924 -69.5611 0.206901 5.8521 -0.0105755 14.7421 -0.281916 1.85689 2.19434 16.8634 -7.51492 0.0 0.0 0.0 1.81563 31.042 0.0317865 -6.30172 0.207693 0.944341 39.1619 -8.90197 -4.92914 -40.1435 0.0 0.0 -0.0 0.0 -0.0 14.1506 22.7961 -1.83324 -21.6877 -0.271768 -3.29721 41.0914 -3.90157 4.95158 -27.8174 0.0 0.0 0.0 0.0 0.0 
2084.77 719.932 -1506.78 -18.0567 66.565 12.2611 3.64106 0.568492 3.74119 3.64878 0.329452 3.76973 3.66673 -0.229215 3.77714 3.64701 0.369757 3.766 -6.12634 11.1378 -6.6572 -5.87464 25.4611 -4.64223 -0.0 0.0 -0.0 -8.42181 21.3691 -9.77929 7.42313 -16.548 67.9072 2.37846 -49.67 1.10089 -34.7754 -2.41344 3.66074 -0.961005 5.23297 -4.11896 -0.0 0.0 -0.0 12.6883 20.4098 -25.4915 -15.1197 -2.8407 -69.9526 0.204854 5.79461 -0.0103678 14.7864 -0.282039 1.86255 1.85949 14.7917 -6.20445 0.0 0.0 0.0 2.1268 31.5296 -0.129925 -4.92568 0.171235 0.73632 38.0485 -10.0121 -4.85368 -40.2173 0.0 0.0 -0.0 0.0 -0.0 13.9612 18.3272 -1.74424 -21.9646 -0.267125 -3.33946 40.5561 -3.47738 4.90707 -25.8291 0.0 0.0 0.0 0.0 0.0 
2074.94 717.858 -1508.22 -19.0005 66.7484 12.9686 3.64204 0.529291 3.74153 3.64978 0.290308 3.76758 3.66512 -0.267805 3.76924 3.64545 0.330405 3.76428 -6.34938 11.2322 -6.98853 -6.09655 25.8771 -4.90804 -0.0 0.0 -0.0 -8.08631 20.8862 -9.44244 5.12261 -16.3427 67.2365 2.51331 -51.2203 1.20487 -35.3877 -2.47453 3.71011 -0.793016 2.15807 -4.35926 -0.0 0.0 -0.0 12.345 19.7812 -24.7431 -15.5908 -2.17652 -70.1694 0.193541 5.4766 -0.00925684 14.8658 -0.282247 1.87268 1.73271 13.7236 -5.82684 0.0 0.0 0.0 2.52842 31.2823 -0.246965 -5.89675 0.197483 0.883033 38.8481 -10.9044 -4.94706 -40.1688 0.0 0.0 -0.0 0.0 -0.0 13.684 17.0866 -1.03658 -22.0704 -0.265298 -3.35559 40.7556 -4.76871 4.92257 -23.7779 0.0 0.0 0.0 0.0 0.0 
2070.39 716.488 -1510.04 -19.6043 67.2053 13.5326 3.71989 0.545233 3.78137 3.72779 0.303688 3.80835 3.74398 -0.255303 3.8119 3.72388 0.349471 3.80443 -5.61315 11.1046 -6.7023 -5.31768 25.4275 -4.8224 -0.0 0.0 -0.0 -7.79591 21.9445 -8.63599 5.72078 -15.9423 67.1564 2.40446 -49.977 1.12076 -35.6691 -2.50279 3.73258 -0.740453 0.715294 -4.6387 -0.0 0.0 -0.0 12.4689 19.1854 -25.0691 -15.3685 -1.7882 -69.5785 0.185539 5.25148 -0.00850885 15.0534 -0.282683 1.89664 1.42547 11.7644 -4.6139 0.0 0.0 0.0 2.55338 31.5825 -0.2784 -5.20218 0.178962 0.77805 38.9978 -11.8897 -4.98552 -40.0582 0.0 0.0 -0.0 0.0 -0.0 13.6841 15.9119 -0.71218 -21.9752 -0.266944 -3.34107 41.0424 -2.21247 4.95195 -21.7447 0.0 0.0 0.0 0.0 0.0 
2063.14 716.262 -1512.65 -18.6737 66.2358 12.2482 3.75989 0.718319 3.86799 3.76808 0.470926 3.90578 3.79598 -0.100133 3.93275 3.77478 0.521746 3.89932 -6.09805 10.904 -5.50533 -5.90578 24.1917 -3.51308 -0.0 0.0 -0.0 -8.1264 23.814 -8.45645 4.34489 -16.9647 67.1575 2.45838 -50.6011 1.16224 -35.1447 -2.45022 3.6906 -0.647368 -0.639176 -4.60437 -0.0 0.0 -0.0 12.9512 18.0675 -26.2552 -14.8489 -1.39388 -68.1293 0.188141 5.32469 -0.00874858 15.2235 -0.283011 1.91837 0.86846 6.92953 -2.92296 0.0 0.0 0.0 3.87482 29.3287 -0.952132 -8.61011 0.257595 1.29504 38.0442 -11.2577 -4.88307 -40.1225 0.0 0.0 -0.0 0.0 -0.0 12.0984 13.5206 0.306933 -19.9855 -0.295812 -3.03714 40.1806 0.131213 4.8924 -19.5655 0.0 0.0 0.0 0.0 0.0 
2054.51 719.579 -1512.48 -19.2944 66.7895 12.7618 3.5246 0.759035 3.90412 3.53293 0.509266 3.94442 3.56428 -0.0838187 3.97623 3.54264 0.544708 3.93969 -6.05729 11.0011 -6.4678 -5.81241 25.0705 -4.49054 -0.0 0.0 -0.0 -7.73648 23.5977 -7.97609 2.42478 -15.6163 67.1385 2.28931 -48.5876 1.03347 -36.0642 -2.54264 3.7639 -0.613756 -1.88596 -4.91909 -0.0 0.0 -0.0 12.7901 18.1453 -25.8761 -13.253 -0.796887 -68.7624 0.189299 5.35729 -0.00885647 15.242 -0.283043 1.92073 1.06336 9.08136 -3.32426 0.0 0.0 0.0 4.01072 31.6444 -0.856012 -6.97919 0.223804 1.04706 38.8669 -12.0218 -4.97729 -40.1918 0.0 0.0 -0.0 0.0 -0.0 11.5491 12.0429 0.998345 -21.8584 -0.26893 -3.32325 40.1807 -2.88644 4.87651 -19.3338 0.0 0.0 0.0 0.0 0.0 
